HIERARCHY
ROOT root
{
	OFFSET	0	13.1	24.9
	CHANNELS 6  Xposition Yposition Zposition Xrotation Yrotation Zrotation
	JOINT spine_1
	{
		OFFSET	0	9.99999	0
		CHANNELS 3  Xrotation Yrotation Zrotation
		JOINT spine_2
		{
			OFFSET	0	112	-10
			CHANNELS 3  Xrotation Yrotation Zrotation
			JOINT spine_3
			{
				OFFSET	0	206.5	19.3
				CHANNELS 3  Xrotation Yrotation Zrotation
				JOINT spine_4
				{
					OFFSET	0	110.4	14.6
					CHANNELS 3  Xrotation Yrotation Zrotation
					JOINT neck_1
					{
						OFFSET	0	71.8	-50.3
						CHANNELS 3  Xrotation Yrotation Zrotation
						JOINT neck_2
						{
							OFFSET	0	86.2	-25.8
							CHANNELS 3  Xrotation Yrotation Zrotation
							JOINT head_ee
							{
								OFFSET	0	179.8	-8.7
								CHANNELS 3  Xrotation Yrotation Zrotation
								End Site
								{
									OFFSET	1	0	0
								}
							}
						}
					}
					JOINT left_clavicle
					{
						OFFSET	-43.2	22.4	-70.8
						CHANNELS 3  Xrotation Yrotation Zrotation
						JOINT left_shoulder
						{
							OFFSET	-93.9	-5.79999	48.7
							CHANNELS 3  Xrotation Yrotation Zrotation
							JOINT left_elbow
							{
								OFFSET	-291.4	-30.8	15.2
								CHANNELS 3  Xrotation Yrotation Zrotation
								JOINT left_lowarm_twist
								{
									OFFSET	-110.7	-3.89999	13.6
									CHANNELS 3  Xrotation Yrotation Zrotation
									JOINT left_hand
									{
										OFFSET	-110.7	-3.89999	13.6
										CHANNELS 3  Xrotation Yrotation Zrotation
										JOINT left_ee
										{
											OFFSET	-80.8	-5.10001	12.1
											CHANNELS 3  Xrotation Yrotation Zrotation
											End Site
											{
												OFFSET	1	0	0
											}
										}
									}
								}
							}
						}
					}
					JOINT right_clavicle
					{
						OFFSET	43.2	22.4	-70.8
						CHANNELS 3  Xrotation Yrotation Zrotation
						JOINT right_shoulder
						{
							OFFSET	93.9	-5.79999	48.7
							CHANNELS 3  Xrotation Yrotation Zrotation
							JOINT right_elbow
							{
								OFFSET	291.4	-30.8	15.2
								CHANNELS 3  Xrotation Yrotation Zrotation
								JOINT right_lowarm_twist
								{
									OFFSET	110.7	-3.89999	13.6
									CHANNELS 3  Xrotation Yrotation Zrotation
									JOINT right_hand
									{
										OFFSET	110.7	-3.89999	13.6
										CHANNELS 3  Xrotation Yrotation Zrotation
										JOINT right_ee
										{
											OFFSET	80.8	-5.10001	12.1
											CHANNELS 3  Xrotation Yrotation Zrotation
											End Site
											{
												OFFSET	1	0	0
											}
										}
									}
								}
							}
						}
					}
				}
			}
		}
	}
	JOINT left_hip
	{
		OFFSET	-82.8	-127.5	0.300001
		CHANNELS 3  Xrotation Yrotation Zrotation
		JOINT left_knee
		{
			OFFSET	-28.2	-396.7	2.2
			CHANNELS 3  Xrotation Yrotation Zrotation
			JOINT left_ankle
			{
				OFFSET	-11.7	-411.3	35.4
				CHANNELS 3  Xrotation Yrotation Zrotation
				JOINT left_toes
				{
					OFFSET	0	-60	-88.6
					CHANNELS 3  Xrotation Yrotation Zrotation
					JOINT left_foot_ee
					{
						OFFSET	-22.5	-16.5	-42.2
						CHANNELS 3  Xrotation Yrotation Zrotation
						End Site
						{
							OFFSET	1	0	0
						}
					}
				}
			}
		}
	}
	JOINT right_hip
	{
		OFFSET	82.8	-127.5	0.300001
		CHANNELS 3  Xrotation Yrotation Zrotation
		JOINT right_knee
		{
			OFFSET	28.2	-396.7	2.2
			CHANNELS 3  Xrotation Yrotation Zrotation
			JOINT right_ankle
			{
				OFFSET	11.7	-411.3	35.4
				CHANNELS 3  Xrotation Yrotation Zrotation
				JOINT right_toes
				{
					OFFSET	0	-60	-88.6
					CHANNELS 3  Xrotation Yrotation Zrotation
					JOINT right_foot_ee
					{
						OFFSET	22.5	-16.5	-42.2
						CHANNELS 3  Xrotation Yrotation Zrotation
						End Site
						{
							OFFSET	1	0	0
						}
					}
				}
			}
		}
	}
}
MOTION
Frames: 15
Frame Time: 0.02
3506.37289106 728.006 -1508.22786889 20.2246530193 86.7229467724 -12.5148907815 1.29442 -0.611232 -3.91587 1.30288 -0.361015 -3.94677 1.32921 0.385488 -3.94445 1.30758 -0.241801 -3.95584 -10.3197 -0.0495582 4.7751 -10.2574 -3.29988 4.6348 -0.0 0.0 -0.0 2.50246 2.92016 5.03522 -5.01602 -11.1711 77.968 2.07307 -45.756 0.874841 -29.6313 -1.92187 3.22101 1.59877 -15.9246 3.94204 -0.0 0.0 -0.0 0.161519 -8.75683 -1.32131 12.2028 7.33525 -69.2584 0.287499 8.10567 -0.0203703 24.1262 -0.21026 3.05204 4.02678 14.9528 -21.089 0.0 0.0 0.0 -1.00873 0.63896 -12.4852 -8.6525 0.258379 1.3015 29.2154 -0.921994 -3.83318 -20.6458 0.0 0.0 -0.0 0.0 -0.0 -5.65566 20.095 -17.3393 -6.83804 -0.220547 -1.02564 35.1103 -21.5582 4.58545 -9.19076 0.0 0.0 0.0 0.0 0.0 
3488.3299269 714.966 -1500.41369557 170.742853703 82.2920928624 -165.980241894 0.867479 -0.381422 -3.20331 0.873169 -0.176922 -3.22107 0.884627 0.455146 -3.19368 0.870399 -0.0546763 -3.22545 -10.5002 -0.972971 4.29223 -10.4541 -4.70382 3.92285 -0.0 0.0 -0.0 2.11997 4.64854 4.45142 -7.71118 -10.5032 76.8627 1.83488 -42.265 0.70927 -28.1987 -1.7922 3.09091 1.26426 -18.1561 0.710481 -0.0 0.0 -0.0 -0.568015 2.07319 1.36304 21.3391 8.41809 -71.8053 0.380972 10.6875 -0.0356352 25.6446 -0.180311 3.24369 4.27688 9.16393 -25.8174 0.0 0.0 0.0 15.8667 -9.30185 -8.95166 -41.6851 -0.577437 6.23254 34.1301 -2.82582 -4.36075 -29.8361 0.0 0.0 -0.0 0.0 -0.0 -7.34476 22.0794 -15.3537 -8.6402 -0.258152 -1.29962 41.908 -17.0495 5.1363 -6.13563 0.0 0.0 0.0 0.0 0.0 
3466.81379773 715.854 -1493.83103475 170.280124626 76.1920959106 -166.165662948 0.623991 -0.289851 -2.91737 0.62872 -0.103706 -2.92989 0.635515 0.482724 -2.89174 0.623847 0.0201739 -2.93165 -9.63858 -1.35331 4.40287 -9.58879 -5.54619 3.98029 -0.0 0.0 -0.0 1.36036 5.40649 3.12297 -10.943 -10.5337 76.8423 1.63072 -38.9286 0.576358 -28.6716 -1.83464 3.13421 1.16737 -17.4815 0.36433 -0.0 0.0 -0.0 -0.578796 5.478 1.81956 24.1466 9.09193 -70.7242 0.52928 14.6919 -0.0682342 26.3194 -0.165371 3.3286 4.532 7.78712 -28.4172 0.0 0.0 0.0 21.8173 -11.6223 -6.96946 -50.0804 -1.22918 7.3467 33.4689 -4.86406 -4.32081 -33.4388 0.0 0.0 -0.0 0.0 -0.0 -9.78092 22.7994 -15.213 -8.45534 -0.254692 -1.27147 41.8195 -14.919 5.09115 -5.46835 0.0 0.0 0.0 0.0 0.0 
3450.1458814 715.385 -1486.07187424 169.381289512 72.2408783556 -165.626492206 0.491995 -0.217875 -2.65931 0.495928 -0.0482759 -2.66778 0.499497 0.490986 -2.62268 0.489906 0.0707743 -2.66727 -9.55657 -1.6566 4.44292 -9.50683 -6.14788 3.95115 -0.0 0.0 -0.0 0.780481 6.18418 2.14528 -13.7952 -10.3079 76.6682 1.4867 -36.3681 0.488368 -28.9781 -1.86235 3.1621 1.10804 -16.7106 0.308596 -0.0 0.0 -0.0 -0.603336 7.24138 2.09282 26.5679 9.64745 -70.1747 0.703646 19.2168 -0.11912 26.6606 -0.157437 3.37146 4.70989 7.57085 -29.8943 0.0 0.0 0.0 26.0239 -12.8994 -6.35897 -53.2073 -1.51282 7.73593 32.6924 -5.48476 -4.25119 -35.8264 0.0 0.0 -0.0 0.0 -0.0 -12.1695 23.41 -15.2711 -7.71422 -0.239907 -1.1587 41.1211 -13.3092 5.0078 -5.18221 0.0 0.0 0.0 0.0 0.0 
3450.06897417 715.385 -1485.19503884 169.608630879 71.843518665 -165.865474471 0.491995 -0.217875 -2.65931 0.495928 -0.0482759 -2.66778 0.499497 0.490986 -2.62268 0.489906 0.0707743 -2.66727 -9.55657 -1.6566 4.44292 -9.50683 -6.14788 3.95115 -0.0 0.0 -0.0 0.780481 6.18418 2.14528 -13.7952 -10.3079 76.6682 1.4867 -36.3681 0.488368 -28.9781 -1.86235 3.1621 1.10804 -16.7106 0.308596 -0.0 0.0 -0.0 -0.603336 7.24138 2.09282 26.5679 9.64745 -70.1747 0.703646 19.2168 -0.11912 26.6606 -0.157437 3.37146 4.70989 7.57085 -29.8943 0.0 0.0 0.0 26.0239 -12.8994 -6.35897 -53.2073 -1.51282 7.73593 32.6924 -5.48476 -4.25119 -35.8264 0.0 0.0 -0.0 0.0 -0.0 -12.1695 23.41 -15.2711 -7.71422 -0.239907 -1.1587 41.1211 -13.3092 5.0078 -5.18221 0.0 0.0 0.0 0.0 0.0 
3443.70794241 713.402 -1483.01017065 169.838491311 70.5928955255 -166.292284701 0.372653 -0.21254 -2.64164 0.376534 -0.0440753 -2.6498 0.379991 0.496908 -2.6032 0.370543 0.0796954 -2.64897 -10.2215 -2.02529 4.20981 -10.1829 -6.64678 3.59095 -0.0 0.0 -0.0 0.305593 6.43348 1.31509 -14.78 -9.60162 77.0753 1.27825 -32.3409 0.370666 -29.0199 -1.86614 3.16589 1.05478 -15.5859 0.446332 -0.0 0.0 -0.0 -0.749186 7.58049 2.43458 28.5812 10.1567 -69.5426 0.915631 24.3976 -0.19795 27.1121 -0.146547 3.4281 4.79635 8.03413 -30.3363 0.0 0.0 0.0 29.8401 -13.8381 -5.14132 -52.3593 -1.4338 7.63189 31.4038 -4.70131 -4.10704 -36.8929 0.0 0.0 -0.0 0.0 -0.0 -12.8696 23.609 -15.1887 -7.31194 -0.231271 -1.09757 41.3038 -13.0783 5.02063 -5.10244 0.0 0.0 0.0 0.0 0.0 
3436.60070397 714.711 -1480.03181323 170.387190633 68.9674697818 -166.882035116 0.271319 -0.367174 -2.52139 0.274833 -0.206041 -2.53962 0.285543 0.319876 -2.52782 0.276635 -0.0832263 -2.5466 -11.3343 -2.64983 4.09081 -11.3114 -7.69038 3.23737 -0.0 0.0 -0.0 0.650914 6.59902 1.95453 -15.4137 -10.1024 76.0716 1.02381 -26.8918 0.244778 -29.7242 -1.93039 3.22934 1.04953 -12.7969 1.62812 -0.0 0.0 -0.0 -0.447407 7.87558 1.85277 27.0089 11.1956 -68.8379 1.46983 36.0565 -0.478402 28.4392 -0.111951 3.5941 4.72826 10.1262 -28.7488 0.0 0.0 0.0 32.4841 -14.1899 -4.67224 -51.1117 -1.32036 7.47675 28.7006 -0.589799 -3.77449 -39.1493 0.0 0.0 -0.0 0.0 -0.0 -13.3504 23.1361 -15.381 -6.91312 -0.222286 -1.03703 41.2933 -13.7587 5.0287 -5.09955 0.0 0.0 0.0 0.0 0.0 
3432.08457664 712.684 -1480.46640634 171.317156238 68.7216730636 -167.681202499 0.172404 -0.442211 -2.47016 0.175754 -0.284182 -2.49328 0.189818 0.237977 -2.49811 0.181145 -0.159412 -2.50434 -12.1213 -2.87077 3.5602 -12.1163 -7.72986 2.60857 -0.0 0.0 -0.0 0.664774 6.02429 1.91954 -16.4084 -9.01904 76.3101 0.860465 -23.0859 0.175738 -29.5655 -1.91584 3.21511 1.08896 -13.299 1.67514 -0.0 0.0 -0.0 -0.349661 9.67497 1.87204 29.0694 12.0621 -69.1828 1.72827 40.5645 -0.63874 27.8183 -0.128617 3.51653 4.9503 10.3017 -30.3695 0.0 0.0 0.0 34.5251 -14.407 -4.27782 -50.3383 -1.25176 7.37937 27.7815 -0.947195 -3.67611 -38.8037 0.0 0.0 -0.0 0.0 -0.0 -13.5807 23.2808 -15.4237 -6.56452 -0.214087 -0.984165 41.2703 -12.2584 5.00792 -5.07553 0.0 0.0 0.0 0.0 0.0 
3421.48430916 711.788 -1478.30494849 172.195671898 68.1226639105 -168.452731152 0.248593 -0.416871 -2.41872 0.251809 -0.262163 -2.44033 0.264518 0.245387 -2.44207 0.256224 -0.143253 -2.45018 -12.5704 -3.14211 3.23646 -12.5778 -8.02137 2.18751 -0.0 0.0 -0.0 0.634803 6.30358 1.8946 -17.5181 -8.4681 75.8874 0.720311 -19.6375 0.124664 -29.7301 -1.93093 3.22986 1.09573 -12.513 2.06267 -0.0 0.0 -0.0 -0.201327 10.4129 1.65287 29.2264 12.3974 -68.7765 2.05528 45.5092 -0.86212 27.9937 -0.123994 3.53846 4.99826 10.9242 -30.4119 0.0 0.0 0.0 35.9714 -14.6123 -4.02347 -47.363 -1.00034 6.99649 26.1597 0.323344 -3.48432 -39.5049 0.0 0.0 -0.0 0.0 -0.0 -14.0819 23.2206 -15.6439 -6.33498 -0.208512 -0.94938 40.9334 -12.2513 4.97879 -5.12695 0.0 0.0 0.0 0.0 0.0 
3411.19366417 710.077 -1478.41409116 173.432030182 68.0411847638 -169.372710488 0.286632 -0.351086 -2.38413 0.289772 -0.198711 -2.40162 0.299503 0.298109 -2.39132 0.291533 -0.0831837 -2.40839 -12.429 -2.98803 2.67763 -12.4392 -7.37795 1.7059 -0.0 0.0 -0.0 0.647501 6.1082 1.89707 -18.3275 -8.7301 75.2557 0.510009 -14.1789 0.06343 -31.3201 -2.07885 3.37019 1.40659 -10.3191 5.1144 -0.0 0.0 -0.0 -0.240835 12.1771 1.94598 29.6486 13.2763 -67.9893 2.34255 49.2398 -1.07361 27.3103 -0.141624 3.45295 5.04783 10.9623 -30.7769 0.0 0.0 0.0 37.1543 -14.6828 -3.91761 -43.1311 -0.677887 6.43095 23.3161 6.41306 -3.13325 -40.108 0.0 0.0 -0.0 0.0 -0.0 -14.4782 23.1736 -16.0966 -5.20264 -0.178975 -0.778118 40.4736 -12.7136 4.94401 -4.95773 0.0 0.0 0.0 0.0 0.0 
3403.99332808 706.503 -1478.38919371 174.016488991 67.3707657349 -170.028289161 0.205656 -0.281888 -2.0748 0.208038 -0.149322 -2.08852 0.214574 0.285297 -2.07433 0.208572 -0.0458115 -2.09335 -13.201 -3.49917 2.72855 -13.2257 -8.36164 1.54904 -0.0 0.0 -0.0 0.569309 5.57861 1.69926 -19.329 -8.17967 74.8145 0.494567 -13.7662 0.0597014 -30.1825 -1.97262 3.27021 1.15412 -11.231 3.01243 -0.0 0.0 -0.0 -0.104207 12.6336 1.71268 30.4941 13.1161 -67.9743 2.57124 51.8558 -1.25023 28.2923 -0.115971 3.57576 5.04199 11.8084 -30.2749 0.0 0.0 0.0 38.4311 -14.8564 -3.74407 -42.8204 -0.655881 6.38853 23.8169 2.8864 -3.19974 -40.2594 0.0 0.0 -0.0 0.0 -0.0 -14.8165 23.1385 -16.4263 -5.58119 -0.189226 -0.835309 40.6168 -12.2836 4.95163 -5.16339 0.0 0.0 0.0 0.0 0.0 
3393.63751722 703.466 -1474.64915017 174.270990637 67.2359790804 -170.144659358 0.341364 -0.260644 -2.10164 0.343813 -0.126414 -2.11396 0.349484 0.308048 -2.09522 0.343359 -0.0266418 -2.11756 -13.3378 -3.63879 2.58095 -13.3678 -8.53214 1.35535 -0.0 0.0 -0.0 0.510743 5.91976 1.62947 -20.287 -7.87834 74.7524 0.410945 -11.5067 0.0414044 -30.2433 -1.97825 3.2756 1.15455 -10.8194 3.19322 -0.0 0.0 -0.0 -0.112345 12.7521 1.74373 31.1637 13.5186 -67.5919 2.77554 53.9611 -1.41322 28.3657 -0.113969 3.58492 5.08122 12.1232 -30.4068 0.0 0.0 0.0 39.606 -14.9899 -3.59702 -40.5583 -0.50267 6.07626 23.1633 3.35463 -3.12075 -40.5105 0.0 0.0 -0.0 0.0 -0.0 -15.3461 23.1759 -16.6934 -5.49843 -0.187017 -0.8228 40.5497 -12.3087 4.94605 -5.15925 0.0 0.0 0.0 0.0 0.0 
3374.82803142 695.412 -1469.80085981 175.071049711 67.5954444579 -170.567890873 0.267089 -0.139384 -1.90638 0.269111 -0.0178167 -1.91138 0.270487 0.375595 -1.87421 0.265593 0.0749409 -1.90999 -13.5474 -3.75377 2.33698 -13.5834 -8.59556 1.07146 -0.0 0.0 -0.0 0.422581 6.15911 1.49588 -22.0298 -7.49158 74.3413 0.298066 -8.39941 0.0218872 -30.4505 -1.99746 3.29394 1.18469 -10.3173 3.6137 -0.0 0.0 -0.0 -0.0965025 13.6354 1.81374 32.5846 13.9406 -66.7926 3.05017 56.4905 -1.63886 28.4604 -0.111367 3.59675 5.09948 12.4964 -30.343 0.0 0.0 0.0 42.0817 -15.1509 -3.39115 -36.0905 -0.236964 5.44323 22.364 4.33504 -3.02244 -40.5231 0.0 0.0 -0.0 0.0 -0.0 -16.4531 23.3484 -16.9085 -5.14938 -0.177502 -0.770078 40.4711 -12.3565 4.9397 -5.1872 0.0 0.0 0.0 0.0 0.0 
3370.01907564 693.159 -1467.65244247 179.238390753 66.6665424817 -174.419236424 0.605196 -0.341273 -1.88741 0.607151 -0.220503 -1.90529 0.615241 0.164379 -1.91095 0.610171 -0.139426 -1.91293 -13.5378 -2.46009 -0.629698 -13.5495 -4.29723 -1.35292 -0.0 0.0 -0.0 0.866221 6.26082 2.30786 -22.4807 -7.093 73.4249 0.197535 -5.5889 0.00964184 -31.2103 -2.06851 3.36063 1.34267 -12.2689 3.83433 -0.0 0.0 -0.0 -0.0779605 13.714 1.78371 33.333 14.1639 -66.6142 3.14219 57.2691 -1.71594 27.7458 -0.130506 3.50747 4.85552 10.8194 -29.3648 0.0 0.0 0.0 40.9441 -14.6125 -2.82439 -26.1957 0.170879 3.98148 18.8732 8.01642 -2.59031 -40.1608 0.0 0.0 -0.0 0.0 -0.0 -16.3726 23.5225 -17.1922 -2.05473 -0.0791321 -0.305385 41.151 -13.725 5.01592 -5.49743 0.0 0.0 0.0 0.0 0.0 
3293.1845826 670.962 -1444.64897142 -170.202089871 67.2747085335 177.669066274 1.10066 -0.606805 -2.12243 1.10304 -0.470552 -2.15672 1.12153 -0.0500989 -2.20686 1.11496 -0.39792 -2.17128 -12.7987 -3.78365 0.939645 -12.8333 -7.78474 -0.216867 -0.0 0.0 -0.0 0.610085 5.61768 1.77758 -25.4727 -6.49242 74.9067 0.154698 -4.38229 0.00591902 -31.2467 -2.07194 3.3638 1.29364 -8.81289 4.99803 -0.0 0.0 -0.0 0.313495 14.976 1.09871 35.9851 11.4291 -65.9053 3.30081 58.5377 -1.85032 28.2519 -0.117067 3.57072 4.91797 12.8827 -28.7398 0.0 0.0 0.0 41.8801 -13.9817 -4.02211 -18.5975 0.309692 2.82462 18.1109 7.99054 -2.49403 -40.2169 0.0 0.0 -0.0 0.0 -0.0 -16.3366 23.3413 -18.3576 -0.833019 -0.0334029 -0.123472 39.9375 -13.0888 4.90109 -5.6144 0.0 0.0 0.0 0.0 0.0 
